<svg width="40" height="40" viewBox="0 0 40 40" fill="none" xmlns="http://www.w3.org/2000/svg">
<path fill-rule="evenodd" clip-rule="evenodd" d="M0 8C0 5.79086 1.79086 4 4 4H36C38.2 4 40 5.78 40 8V16C37.8 16 36 17.78 36 20C36 22.2091 37.7909 24 40 24V32C40 34.2091 38.2091 36 36 36H4C1.79086 36 0 34.2091 0 32V24C2.20914 24 4 22.2091 4 20C4 17.8 2.22 16 0 16V8ZM30 13L27 10L10 27L13 30L30 13ZM13.62 10.08C15.58 10.08 17.16 11.66 17.16 13.62C17.16 15.5751 15.5751 17.16 13.62 17.16C11.66 17.16 10.08 15.58 10.08 13.62C10.08 11.6649 11.6649 10.08 13.62 10.08ZM29.92 26.38C29.92 24.42 28.34 22.84 26.38 22.84C24.4249 22.84 22.84 24.4249 22.84 26.38C22.84 28.34 24.42 29.92 26.38 29.92C28.3351 29.92 29.92 28.3351 29.92 26.38Z" fill="black"/>
</svg>
