<svg width="24" height="18" viewBox="0 0 24 18" fill="none" xmlns="http://www.w3.org/2000/svg">
<path fill-rule="evenodd" clip-rule="evenodd" d="M15.2727 0C12.8628 0 10.9091 2.01472 10.9091 4.5C10.9091 6.98528 12.8628 9 15.2727 9C17.6827 9 19.6364 6.98528 19.6364 4.5C19.6364 2.01472 17.6827 0 15.2727 0ZM15.2727 2.1375C16.5382 2.1375 17.5636 3.195 17.5636 4.5C17.5636 5.805 16.5382 6.8625 15.2727 6.8625C14.0075 6.8625 12.9818 5.80477 12.9818 4.5C12.9818 3.19523 14.0075 2.1375 15.2727 2.1375ZM3.27273 6.75V3.375H5.45455V6.75H8.72727V9H5.45455V12.375H3.27273V9H0V6.75H3.27273ZM15.2727 10.125C12.36 10.125 6.54545 11.6213 6.54545 14.625V18H24V14.625C24 11.6213 18.1855 10.125 15.2727 10.125ZM21.9273 14.625C21.9273 13.905 18.5127 12.2625 15.2727 12.2625C12 12.2625 8.61818 13.905 8.61818 14.625V15.8625H21.9273V14.625Z" fill="#FB6D3A"/>
</svg>
