<svg width="24" height="19" viewBox="0 0 24 19" fill="none" xmlns="http://www.w3.org/2000/svg">
<path fill-rule="evenodd" clip-rule="evenodd" d="M21.6 0H2.4C1.068 0 0 1.05687 0 2.375V16.625C0 17.9367 1.07452 19 2.4 19H21.6C22.9255 19 24 17.9367 24 16.625V2.375C24 1.05687 22.92 0 21.6 0ZM21.6 16.625H2.4V2.375H21.6V16.625ZM13.2 15.4375H10.8V14.25H8.4V11.875H13.2V10.6875H9.6C8.93726 10.6875 8.4 10.1558 8.4 9.5V5.9375C8.4 5.28166 8.93726 4.75 9.6 4.75H10.8V3.5625H13.2V4.75H15.6V7.125H10.8V8.3125H14.4C15.0627 8.3125 15.6 8.84416 15.6 9.5V13.0625C15.6 13.7183 15.0627 14.25 14.4 14.25H13.2V15.4375Z" fill="#FACD5D"/>
</svg>
