<svg width="48" height="48" viewBox="0 0 48 48" fill="none" xmlns="http://www.w3.org/2000/svg">
<rect width="48" height="48" rx="10" fill="white"/>
<path fill-rule="evenodd" clip-rule="evenodd" d="M24 17.1537C25.09 15.8387 26.76 15 28.5 15C31.58 15 34 17.4954 34 20.6948C34 24.5984 30.6 27.7978 25.45 32.6332L24 34L22.55 32.6332C17.4 27.7978 14 24.5984 14 20.6948C14 17.4954 16.42 15 19.5 15C21.24 15 22.91 15.8387 24 17.1537ZM24 31.2044L24.1 31.1008C28.86 26.6381 32 23.6872 32 20.6948C32 18.624 30.5 17.0708 28.5 17.0708C26.96 17.0708 25.46 18.1063 24.93 19.5144H23.07C22.54 18.1063 21.04 17.0708 19.5 17.0708C17.5 17.0708 16 18.624 16 20.6948C16 23.6872 19.14 26.6381 23.89 31.1008L24 31.2044Z" fill="black"/>
</svg>
